<svg id="Capa_1" data-name="Capa 1" xmlns="http://www.w3.org/2000/svg" viewBox="0 0 191.4 191.73"><defs><style>.cls-1{fill:#fff;}.cls-2,.cls-3{fill:none;}.cls-2{stroke:#fff;stroke-width:2px;}</style></defs><path class="cls-1" d="M28.24,155l-7.49,4.4-2-3.4a5.54,5.54,0,0,1-.8-2.43,4.19,4.19,0,0,1,.45-2.22,4.6,4.6,0,0,1,4-2.32,4.06,4.06,0,0,1,2.16.69,5.35,5.35,0,0,1,1.73,1.88Zm-2.44-.9-.93-1.58a3.23,3.23,0,0,0-1.05-1.14,2.44,2.44,0,0,0-1.31-.38A3.09,3.09,0,0,0,20,152.41a2.53,2.53,0,0,0-.3,1.33,3.35,3.35,0,0,0,.48,1.47l.94,1.58Z" transform="translate(-4.8 -4.64)"/><path class="cls-1" d="M20.72,140.72l-8.11,3.11-2.35-6.13,1.5-.58,1.64,4.27,5.1-2L16.81,135l1.51-.58Zm-4-.43-1.46.56-1.5-3.91,1.46-.56Z" transform="translate(-4.8 -4.64)"/><path class="cls-1" d="M16.19,127.27,7.68,129l-.34-1.63,5.11-6.28.16.8-6.13,1.25-.4-2,8.52-1.74.33,1.62-5.1,6.29-.16-.79,6.13-1.25Z" transform="translate(-4.8 -4.64)"/><path class="cls-1" d="M13.67,109.75l-7,.27.11,2.78-1.64.07L4.8,105.3l1.64-.07.1,2.78,7.05-.27Z" transform="translate(-4.8 -4.64)"/><path class="cls-1" d="M13.61,99.55l-8.2-4.84.23-2,9.08-2.87L14.48,92l-8,2.28.09-.79,7.26,4.05ZM12,97.42l-1.46-.71L11,92.27l1.58-.37Z" transform="translate(-4.8 -4.64)"/><path class="cls-1" d="M16.18,83.23,7.8,80.92,8.33,79l6.8,1.88,1.16-4.2,1.58.43Z" transform="translate(-4.8 -4.64)"/><path class="cls-1" d="M21.55,58.39a1.6,1.6,0,0,1-.93.77A1.55,1.55,0,0,1,19.39,59a1.48,1.48,0,0,1-.78-1,1.57,1.57,0,0,1,.17-1.19,1.54,1.54,0,0,1,.93-.78,1.51,1.51,0,0,1,1.21.17,1.5,1.5,0,0,1,.63,2.15Z" transform="translate(-4.8 -4.64)"/><path class="cls-1" d="M39.5,41.43a7,7,0,0,1-1.59,1.24,4.61,4.61,0,0,1-1.6.6l-.61-1.55a5,5,0,0,0,1.39-.49,4.9,4.9,0,0,0,1.26-.93,3.18,3.18,0,0,0,.59-.78,1.14,1.14,0,0,0,.14-.61.68.68,0,0,0-.23-.46.61.61,0,0,0-.58-.19,2.13,2.13,0,0,0-.74.28c-.27.15-.56.33-.87.53a9.32,9.32,0,0,1-1,.57,4.71,4.71,0,0,1-1,.4,2.2,2.2,0,0,1-1,0,2.1,2.1,0,0,1-1-.6A2.47,2.47,0,0,1,32,38.22a2.73,2.73,0,0,1,.14-1.55A5,5,0,0,1,33.27,35a6.86,6.86,0,0,1,1.26-1,4.58,4.58,0,0,1,1.39-.61l.66,1.51a4.91,4.91,0,0,0-1.21.52,4.19,4.19,0,0,0-.95.73,2.55,2.55,0,0,0-.57.78,1.13,1.13,0,0,0-.12.63A.79.79,0,0,0,34,38a.64.64,0,0,0,.58.18,2,2,0,0,0,.74-.29c.27-.15.56-.33.87-.53s.63-.39,1-.58a4.37,4.37,0,0,1,1-.4,2.24,2.24,0,0,1,1,0,2,2,0,0,1,1,.59,2.35,2.35,0,0,1,.68,1.23,2.86,2.86,0,0,1-.15,1.56A4.9,4.9,0,0,1,39.5,41.43Z" transform="translate(-4.8 -4.64)"/><path class="cls-1" d="M48.78,32.89l-4.28-5.6L42.29,29l-1-1.3,6-4.59,1,1.3L46.1,26.07l4.28,5.6Z" transform="translate(-4.8 -4.64)"/><path class="cls-1" d="M58.46,26.21l-4.14-7.64,3.26-1.77a4.27,4.27,0,0,1,2.88-.61,2.89,2.89,0,0,1,2,1.56,3,3,0,0,1,.39,1.69A3,3,0,0,1,62.21,21a4.93,4.93,0,0,1-1.6,1.29l-2.32,1.26.37-1.2,1.57,2.9Zm.3-3.66-1.23-.41,2.22-1.2a2.06,2.06,0,0,0,1-1,1.43,1.43,0,0,0-.12-1.2,1.41,1.41,0,0,0-.94-.76,2.08,2.08,0,0,0-1.41.31l-2.23,1.21.33-1.27Zm4.56,1L59.9,21.84l1.89-1,3.44,1.72Z" transform="translate(-4.8 -4.64)"/><path class="cls-1" d="M72,19.65l-2.88-8.2,6.2-2.18.54,1.52L71.5,12.31l1.81,5.15,4.47-1.56.53,1.52Zm.55-4L72,14.14l4-1.39.51,1.48Z" transform="translate(-4.8 -4.64)"/><path class="cls-1" d="M85.53,15.51,84,6.94l1.64-.28,6.12,5.28-.79.14L89.93,5.92l2-.34,1.49,8.56-1.62.28L85.62,9.14,86.41,9l1.08,6.16Z" transform="translate(-4.8 -4.64)"/><path class="cls-1" d="M105.48,13.63a5.21,5.21,0,0,1-1.89-.33,4.59,4.59,0,0,1-1.51-.94,4.47,4.47,0,0,1-1-1.43,4.38,4.38,0,0,1-.35-1.8,4.29,4.29,0,0,1,.35-1.8,4.35,4.35,0,0,1,1-1.43A4.59,4.59,0,0,1,103.6,5a5.6,5.6,0,0,1,1.92-.32A5.32,5.32,0,0,1,107.6,5a4.15,4.15,0,0,1,1.55,1.12l-1.29,1.19a3.13,3.13,0,0,0-1-.74,3,3,0,0,0-1.21-.24,3.28,3.28,0,0,0-1.16.2,2.47,2.47,0,0,0-.9.57A2.5,2.5,0,0,0,103,8a3,3,0,0,0-.21,1.13,2.9,2.9,0,0,0,.21,1.12,2.64,2.64,0,0,0,.58.89,2.47,2.47,0,0,0,.9.57,3,3,0,0,0,1.13.2,3.32,3.32,0,0,0,2.26-.84L109,12.52a5.15,5.15,0,0,1-1.64.82A6.44,6.44,0,0,1,105.48,13.63ZM109,12.52l-1.83-.26V9H109Z" transform="translate(-4.8 -4.64)"/><path class="cls-1" d="M118.47,14.47l1-7-2.75-.41L117,5.46l7.49,1.11-.24,1.63-2.75-.41-1,7Z" transform="translate(-4.8 -4.64)"/><path class="cls-1" d="M130,16.82l2.7-8.26,1.91.63-2.7,8.26ZM132.87,14l.53-1.61,4,1.32-.53,1.62Zm2.78,4.67,2.71-8.26,1.91.62-2.7,8.26Z" transform="translate(-4.8 -4.64)"/><path class="cls-1" d="M143.66,191.88a6.2,6.2,0,0,1-1.64.5,3.83,3.83,0,0,1-1.44,0l0-1.4a4,4,0,0,0,1.25,0,4.26,4.26,0,0,0,1.28-.35,3,3,0,0,0,.69-.44,1,1,0,0,0,.3-.44.61.61,0,0,0,0-.44.54.54,0,0,0-.41-.32,1.87,1.87,0,0,0-.67,0c-.26,0-.54.09-.85.16a9,9,0,0,1-.93.16,3.55,3.55,0,0,1-.92,0,1.84,1.84,0,0,1-.81-.29,1.73,1.73,0,0,1-.62-.78,2,2,0,0,1-.18-1.18,2.33,2.33,0,0,1,.58-1.19,4.21,4.21,0,0,1,1.44-1,5.51,5.51,0,0,1,1.3-.43,4.06,4.06,0,0,1,1.29-.06l.07,1.39a4.58,4.58,0,0,0-1.12,0,3.67,3.67,0,0,0-1,.3,2.42,2.42,0,0,0-.69.45.92.92,0,0,0-.28.46.74.74,0,0,0,0,.44.56.56,0,0,0,.41.32,1.69,1.69,0,0,0,.67,0c.25,0,.54-.09.84-.16l.93-.17a4.07,4.07,0,0,1,.92,0,1.86,1.86,0,0,1,.81.3,1.72,1.72,0,0,1,.62.76,2,2,0,0,1,.16,1.18,2.36,2.36,0,0,1-.58,1.19A4.36,4.36,0,0,1,143.66,191.88Z" transform="translate(-4.8 -4.64)"/><path class="cls-1" d="M154.66,185.61l-3.32-5-2,1.31-.77-1.15,5.33-3.57.77,1.15-2,1.31,3.32,5Z" transform="translate(-4.8 -4.64)"/><path class="cls-1" d="M163.24,179.31l-2.6-7.61,1.23-1.15,7.41,3.15-1.3,1.21-6.4-2.92.49-.46,2.45,6.6Zm.13-2.27-.55-1.25,2.77-2.58,1.22.64Z" transform="translate(-4.8 -4.64)"/><path class="cls-1" d="M175.12,166.94l-4.71-3.67L169,165.13l-1.1-.86,3.94-5.05,1.1.85-1.45,1.86,4.71,3.66Z" transform="translate(-4.8 -4.64)"/><path class="cls-1" d="M181.84,157.18l-6.36-3.68.85-1.48,6.37,3.69Z" transform="translate(-4.8 -4.64)"/><path class="cls-1" d="M188.09,144.65a4.68,4.68,0,0,1-.85,1.4,3.79,3.79,0,0,1-1.22.9,3.69,3.69,0,0,1-2.94.07,3.91,3.91,0,0,1-1.31-.83A3.52,3.52,0,0,1,181,145a3.86,3.86,0,0,1-.28-1.48,4.3,4.3,0,0,1,.32-1.59,4.22,4.22,0,0,1,.85-1.39,3.68,3.68,0,0,1,1.2-.89,3.73,3.73,0,0,1,1.43-.36,3.91,3.91,0,0,1,2.83,1.11,3.74,3.74,0,0,1,.82,1.23,4,4,0,0,1,.27,1.47A4.58,4.58,0,0,1,188.09,144.65Zm-1.36-.52a2.5,2.5,0,0,0,.18-.91,2.34,2.34,0,0,0-.19-.86,2.14,2.14,0,0,0-.52-.72,2.71,2.71,0,0,0-1.78-.7,2.15,2.15,0,0,0-.87.18,2.23,2.23,0,0,0-.71.5,2.5,2.5,0,0,0-.49.8,2.45,2.45,0,0,0-.18.9,2.29,2.29,0,0,0,.19.86,2.41,2.41,0,0,0,.51.73,2.56,2.56,0,0,0,.83.5,2.51,2.51,0,0,0,1,.19,2.16,2.16,0,0,0,.88-.18,2,2,0,0,0,.71-.5A2.35,2.35,0,0,0,186.73,144.13Z" transform="translate(-4.8 -4.64)"/><path class="cls-1" d="M191.66,132.81l-7.2-1.48.28-1.38,6.07-3.18-.14.67-5.18-1.07.34-1.65,7.2,1.49-.28,1.37-6.07,3.18.14-.66,5.18,1.07Z" transform="translate(-4.8 -4.64)"/><path class="cls-2" d="M127.94,191.57A92.22,92.22,0,0,1,33.41,165" transform="translate(-4.8 -4.64)"/><path class="cls-2" d="M154.55,25A92.16,92.16,0,0,1,194.33,114" transform="translate(-4.8 -4.64)"/><path class="cls-1" d="M136.88,83.8C136.6,79,136,74.29,133,70.27A12.66,12.66,0,0,0,122.92,65a25.56,25.56,0,0,0-11,1.83,27.63,27.63,0,0,1-10.26,2.12h0a27.75,27.75,0,0,1-10.26-2.12,25.59,25.59,0,0,0-11-1.83,12.63,12.63,0,0,0-10.08,5.31c-3,4-3.6,8.75-3.88,13.53a56.43,56.43,0,0,0,1,13.1l.87,4.77a3.63,3.63,0,0,1,3-1.61,3.48,3.48,0,0,1,1.26.23q1.65-1.56,3.21-3.09a12.06,12.06,0,0,1,12-3.29,3.67,3.67,0,0,1,2.74-1.23,3.59,3.59,0,0,1,3.58,3l4.72,1.42a12.2,12.2,0,0,0,9.58-.7s0-.11,0-.17a3.6,3.6,0,0,1,3.63-3.57,3.66,3.66,0,0,1,.88.11c2.78-2.75,5.7-5.38,8.59-8l.08-.07a3.4,3.4,0,0,1-.15-1A3.65,3.65,0,1,1,124,87.05l-.57.53c-2.6,2.53-5.25,5-7.9,7.47a3.4,3.4,0,0,1,.21,1.2,3.6,3.6,0,0,1-3.63,3.56,3.63,3.63,0,0,1-1.85-.5,15.16,15.16,0,0,1-11.49,1.22c-1.92-.49-3.82-1.06-5.72-1.65a3.66,3.66,0,0,1-5.95-1.72c-3-.64-5.79-.3-8.24,2l-3.94,3.65a3.77,3.77,0,0,1,.1.83,3.6,3.6,0,0,1-3.63,3.56,3.67,3.67,0,0,1-2.14-.69c.26,1.4.52,2.81.79,4.23h0l1,3.51h0c0,.05.07.39.08.41,1.68,6.45,3.29,12.92,6.26,19a14.93,14.93,0,0,0,4.24,5.57,5.21,5.21,0,0,0,6.59.25A9.16,9.16,0,0,0,91,136.09c1.51-3.3,2.72-6.73,4.08-10.09a52,52,0,0,1,2.63-6.07c1-1.86,2.52-2.74,4-2.66h0c1.45-.08,2.91.8,4,2.65a53.79,53.79,0,0,1,2.62,6.08c1.37,3.36,2.58,6.79,4.08,10.09a9.23,9.23,0,0,0,2.76,3.33,5.23,5.23,0,0,0,6.6-.24,15.11,15.11,0,0,0,4.24-5.57c3-6,4.58-12.52,6.26-19,0,0,.07-.37.08-.41h0l1-3.51h0c.87-4.68,1.73-9.25,2.54-13.82A55.94,55.94,0,0,0,136.88,83.8Z" transform="translate(-4.8 -4.64)"/><path class="cls-3" d="M194.48,112.83" transform="translate(-4.8 -4.64)"/></svg>